<mxfile host="app.diagrams.net" modified="2023-09-28T06:55:32.574Z" agent="Mozilla/5.0 (Windows NT 10.0; Win64; x64) AppleWebKit/537.36 (KHTML, like Gecko) Chrome/113.0.0.0 Safari/537.36" version="21.8.2" etag="yf4Lz_T4nhG1fo0SC_EG" type="github">
  <diagram name="第 1 页" id="O4ay3c9s86gEwekVLd5d">
    <mxGraphModel>
      <root>
        <mxCell id="0" />
        <mxCell id="1" parent="0" />
      </root>
    </mxGraphModel>
  </diagram>
</mxfile>
